
<svg xmlns="http://www.w3.org/2000/svg" viewBox="0 0 123.5 122.75"><defs></defs><g id="Layer_2" data-name="Layer 2"><g id="Layer_1-2" data-name="Layer 1"><path class="cls-1" d="M3,64.19a3,3,0,0,1-.1-6c.21,0,18.52-.8,43.8-10.44l7.95-3-7.41-4.18A216.59,216.59,0,0,1,.88,5.12,3,3,0,0,1,.88.88a3,3,0,0,1,4.24,0A207.74,207.74,0,0,0,59.9,40.45l1.77.88,1.77-.87A207.24,207.24,0,0,0,118.38.88a3,3,0,0,1,4.24,0,3,3,0,0,1,0,4.24c-56.5,56.5-117,59-119.53,59.07Z"/><path class="cls-1" d="M120.5,122.75a3,3,0,0,1-2.12-.88A207.74,207.74,0,0,0,63.6,82.3l-1.77-.88-1.77.87A207.4,207.4,0,0,0,5.12,121.87a3,3,0,0,1-4.24,0,3,3,0,0,1,0-4.24c56.5-56.5,117-59,119.53-59.07h.09a3,3,0,0,1,.1,6c-.21,0-18.52.8-43.8,10.43l-8,3,7.41,4.19a216.26,216.26,0,0,1,46.36,35.42,3,3,0,0,1,0,4.24A3,3,0,0,1,120.5,122.75Z"/></g></g></svg>