<svg xmlns="http://www.w3.org/2000/svg" viewBox="0 0 1944.09 552.77"><defs><style>.cls-1{fill:#fbda71;}.cls-2{fill:#917c50;}</style></defs><g id="Layer_2" data-name="Layer 2"><g id="Layer_1-2" data-name="Layer 1"><path class="cls-1" d="M13.37,286.47A13.39,13.39,0,0,1,13,259.7c.91,0,82.64-3.56,195.47-46.56l35.49-13.53-33.07-18.7C136.24,138.73,66.62,85.55,3.92,22.85A13.39,13.39,0,0,1,13.39,0a13.26,13.26,0,0,1,9.46,3.92C96,77.07,178.26,136.49,267.33,180.54l7.89,3.91,7.91-3.89C372.79,136.4,455.28,77,528.34,3.92a13.39,13.39,0,0,1,18.94,18.94C295.1,275,25.17,286.12,13.8,286.47Z"/><path class="cls-1" d="M537.81,547.85a13.35,13.35,0,0,1-9.48-3.93C455.2,470.78,373,411.36,283.87,367.3l-7.9-3.91-7.9,3.9C178.42,411.44,95.92,470.87,22.86,543.93A13.39,13.39,0,0,1,3.92,525C256.1,272.81,526,261.72,537.4,261.37h.43a13.39,13.39,0,0,1,.41,26.77c-.91,0-82.66,3.57-195.47,46.57l-35.49,13.53,33.07,18.69C415,409.11,484.57,462.29,547.28,525a13.39,13.39,0,0,1-9.47,22.86Z"/><path class="cls-2" d="M941.3,304.71H936a3.35,3.35,0,0,0-3.12,2.14L846.4,530.2,759.77,306.85a3.34,3.34,0,0,0-3.12-2.14h-5.31a3.35,3.35,0,0,0-3.35,3.35V546.59a3.35,3.35,0,0,0,3.35,3.35h5.31a3.35,3.35,0,0,0,3.35-3.35v-206L840.53,547.8a3.37,3.37,0,0,0,3.12,2.14h5.51a3.34,3.34,0,0,0,3.12-2.13l80.35-207.17v206a3.35,3.35,0,0,0,3.35,3.35h5.32a3.35,3.35,0,0,0,3.35-3.35V308.06A3.35,3.35,0,0,0,941.3,304.71Z"/><path class="cls-2" d="M1390.34,302.17H1228.58a3.35,3.35,0,0,0-3.35,3.35v5.22a3.35,3.35,0,0,0,3.35,3.35h74.79v232.5a3.35,3.35,0,0,0,3.35,3.35H1312a3.35,3.35,0,0,0,3.35-3.35V314.09h74.95a3.35,3.35,0,0,0,3.35-3.35v-5.22A3.35,3.35,0,0,0,1390.34,302.17Z"/><rect class="cls-2" x="1435.98" y="304.71" width="12.01" height="245.23" rx="3.35"/><polygon class="cls-2" points="1934.31 305.82 1934.31 530.65 1781.93 305.68 1772.71 305.87 1772.71 548.82 1782.48 548.82 1782.48 323.87 1934.37 547.84 1935.03 548.82 1944.09 548.82 1944.09 305.82 1934.31 305.82"/><path class="cls-2" d="M1612.48,301.57c-1,0-96,1.49-96,130,0,45.18,11.61,78.61,34.51,99.36,21.84,19.8,60.74,21.86,61.47,21.8s39.65-2,61.48-21.8c22.9-20.75,34.5-54.18,34.5-99.36C1708.46,303.06,1613.44,301.57,1612.48,301.57Zm0,240.36c-.17,0-30.68,2.25-54.16-19-20.52-18.59-30.92-49.3-30.92-91.28,0-117.65,81.56-119.13,85.07-119.14s85.08,1.49,85.08,119.14c0,41.94-10.38,72.64-30.87,91.24C1643,544.38,1612.69,541.92,1612.49,541.93Z"/><path class="cls-2" d="M1103.41,301.57c-1,0-96,1.49-96,130,0,45.18,11.6,78.61,34.5,99.36,21.84,19.8,60.74,21.86,61.48,21.8s39.64-2,61.47-21.8c22.9-20.75,34.51-54.18,34.51-99.36C1199.39,303.06,1104.37,301.57,1103.41,301.57Zm0,240.36c-.17,0-30.69,2.25-54.17-19-20.51-18.59-30.92-49.3-30.92-91.28,0-117.65,81.56-119.13,85.08-119.14s85.08,1.49,85.08,119.14c0,41.94-10.39,72.64-30.88,91.24C1133.9,544.39,1103.62,541.92,1103.42,541.93Z"/><path class="cls-2" d="M844.58,1.61a2.91,2.91,0,0,0-2.25-.79,3,3,0,0,0-2.11,1.12l-84,105.16L672,1.94A3,3,0,0,0,669.85.82a2.89,2.89,0,0,0-2.25.79L664,4.94A3,3,0,0,0,663.65,9l86.91,108.75V237.22a3,3,0,0,0,3,3h5.08a3,3,0,0,0,3-3V117.77L848.54,9a3,3,0,0,0-.32-4.08Z"/><path class="cls-2" d="M955.19,1.93A3,3,0,0,0,952.38,0H949a3,3,0,0,0-2.8,1.93L857.41,235.08a3,3,0,0,0,1.54,3.78l4.48,2.07a3.07,3.07,0,0,0,1.26.27,3,3,0,0,0,2.79-1.92l28.29-73.86h109.58l28.4,73.86a3,3,0,0,0,4,1.64l4.48-2.06a3,3,0,0,0,1.55-3.79ZM900,154.35l50.7-133.1,50.61,133.1Z"/><path class="cls-2" d="M1227.47,1.61a3.14,3.14,0,0,0-2.26-.79,3,3,0,0,0-2.11,1.12l-84,105.16L1054.84,1.94a3,3,0,0,0-2.11-1.12,3.18,3.18,0,0,0-2.25.79l-3.63,3.33a3,3,0,0,0-.32,4.08l86.91,108.75V237.22a3,3,0,0,0,3,3h5.08a3,3,0,0,0,3-3V117.77L1231.41,9a3,3,0,0,0-.31-4.08Z"/><path class="cls-2" d="M1426.71,235.07,1338.06,1.93a3,3,0,0,0-2.8-1.93h-3.38a3,3,0,0,0-2.8,1.93l-88.79,233.15a3,3,0,0,0,1.54,3.78l4.49,2.07a3,3,0,0,0,4-1.65l28.29-73.86h109.58l28.4,73.86a3,3,0,0,0,4,1.64l4.48-2.06A3,3,0,0,0,1426.71,235.07Zm-143.84-80.72,50.7-133.1,50.61,133.1Z"/></g></g></svg>